<svg width="271" height="80" viewBox="0 0 271 80" fill="none" xmlns="http://www.w3.org/2000/svg">
<path d="M5.85465 62.6294L5.86823 62.6482C6.52299 63.5761 6.96601 64.4684 7.75238 65.466C10.7049 69.2319 14.9377 71.783 19.647 72.6344C28.0818 74.1677 36.6202 71.0916 40.058 62.7395C40.5193 61.6186 40.851 60.7188 41.0671 59.5119C41.6581 56.2018 41.2933 52.7919 40.0156 49.6818C39.7363 48.9903 39.3493 48.0526 38.9215 47.4694C38.2407 46.5414 37.5592 46.0167 37.6767 44.7431C37.6981 44.5118 37.6312 43.8927 37.7311 43.707C37.8616 43.673 37.8983 43.6687 38.026 43.7479C45.4466 48.3477 46.4062 57.4289 42.1887 64.4986C39.5917 68.8744 35.3517 72.0289 30.4142 73.2591C28.9014 73.6378 27.9343 73.74 26.4053 73.9336C25.4517 73.9657 24.4503 73.9756 23.4973 73.9391C23.0156 73.9208 22.4735 73.8072 21.9825 73.7894C21.5386 73.701 21.0154 73.6714 20.5578 73.5958C15.0562 72.6882 10.0738 69.6057 6.94566 64.9677C6.49425 64.2981 5.68141 63.1356 5.4064 62.3746C5.40754 62.2724 5.40107 62.2003 5.43371 62.104C5.55134 62.1539 5.68077 62.5045 5.85465 62.6294Z" fill="#C16149"/>
<path d="M7.68436 26.9448C7.35724 26.1879 7.19008 25.2191 7.09754 24.3908C6.62199 20.134 7.88317 16.4645 10.5003 13.1326C11.3137 12.0105 12.2545 11.2815 13.337 10.4479C16.1069 8.31483 19.7086 7.00416 23.1898 6.62451C28.031 6.0966 33.7853 7.31152 37.6899 10.3795C38.0252 10.5548 39.3955 11.713 39.6821 11.9932C40.6752 12.9695 41.8254 14.2349 42.5674 15.4103C42.8588 15.8719 44.2971 18.3919 44.3029 18.8069L44.242 18.8376C44.0118 18.6862 43.0199 16.6144 42.6502 16.0998C42.1577 15.3069 41.5501 14.6074 40.9734 13.8769C39.7922 12.3805 38.3094 11.5464 36.8806 10.4016C35.9751 9.945 34.9832 9.30549 34.0381 8.91255C29.5794 7.08505 24.6176 6.89522 20.0323 8.3767C16.4603 9.53725 13.4972 12.0719 11.7974 15.421C10.3991 18.1887 10.3585 20.1144 10.5102 23.176C10.5274 23.5236 10.6148 23.8422 10.6463 24.1684L10.6361 24.2098C10.5921 24.3943 10.5933 24.4425 10.6017 24.6308L10.5361 24.6808C10.2883 24.5891 10.5138 24.5171 10.2822 24.6234C10.2199 24.7609 10.1945 24.9661 10.1619 25.0172C10.0334 25.2186 9.73483 25.3372 9.60431 25.5621C9.44683 25.8336 9.57759 25.9889 9.41423 26.203C9.27552 26.2286 9.14781 26.2445 9.02169 26.3091C8.92283 26.5132 8.51878 27.4849 8.41863 27.5732C7.97794 27.5391 7.97912 27.2127 7.68436 26.9448Z" fill="#C16149"/>
<path d="M36.8805 10.4016L36.9467 10.3596C37.8978 10.984 38.967 11.702 39.767 12.5039C40.2283 12.9662 40.6908 13.442 41.1407 13.915L41.173 13.8929C41.1639 13.1439 37.9697 10.9017 37.6898 10.3795C38.0251 10.5548 39.3954 11.713 39.6821 11.9933C40.6751 12.9696 41.8253 14.2349 42.5674 15.4103C42.8587 15.8719 44.297 18.3919 44.3029 18.8069L44.2419 18.8376C44.0117 18.6862 43.0199 16.6144 42.6501 16.0998C42.1577 15.3069 41.55 14.6074 40.9733 13.8769C39.7921 12.3805 38.3094 11.5464 36.8805 10.4016Z" fill="#C16149"/>
<path d="M34.2365 34.4392C34.3859 33.9332 32.944 31.4931 32.7653 30.8505C33.1582 31.3385 34.358 33.7787 34.4804 33.8305C34.9313 34.8872 35.3956 36.6508 35.659 37.7896C35.7597 38.2251 35.8206 39.1403 35.914 39.4437L35.9233 39.5184L35.9299 39.5481C37.0072 44.5711 35.5673 52.0316 32.9781 56.4163C30.9415 59.8652 27.204 63.5704 22.8285 62.718C20.8537 62.3333 19.4436 61.0889 18.9214 59.1452C18.1552 56.4232 20.7677 53.3294 23.5754 54.7397C24.45 55.1792 24.648 56.7639 23.7162 56.9338C23.5432 56.6499 23.9736 55.9363 23.2402 55.5175C22.7953 55.2583 22.2639 55.1906 21.7681 55.3304C21.1803 55.4988 20.5955 55.9931 20.3236 56.5363C18.6578 59.8286 22.3885 62.3664 25.3657 61.2034C32.3854 58.4617 35.3974 49.6355 35.5617 42.6669C35.6218 40.1194 34.9935 36.843 34.2365 34.4392Z" fill="#C16149"/>
<path d="M7.68435 26.9448C7.97912 27.2127 7.97793 27.539 8.41862 27.5732C8.51877 27.4848 8.92282 26.5132 9.02169 26.3091C9.14781 26.2444 9.27551 26.2286 9.41423 26.2029C9.57759 25.9888 9.44682 25.8336 9.6043 25.5621C9.73482 25.3372 10.0334 25.2185 10.1619 25.0172C10.1945 24.966 10.2199 24.7608 10.2822 24.6234C10.5138 24.5171 10.2883 24.5891 10.5361 24.6808L10.6017 24.6307C10.5933 24.4424 10.5921 24.3942 10.6361 24.2097L10.6463 24.1684C10.8796 25.3928 11.443 26.639 11.9965 27.7571C13.2719 30.3335 15.2991 32.5499 17.5495 34.3153C18.0744 34.727 18.6103 35.1976 19.1561 35.5682L22.7238 38.0117C23.1356 38.2912 24.8385 39.3998 25.1012 39.7119C24.1503 39.3945 23.2408 38.996 22.3068 38.621C16.8425 36.427 10.8634 33.6027 8.1449 28.0342C7.96855 27.6731 7.80025 27.3297 7.68435 26.9448Z" fill="#C16149"/>
<path d="M19.0559 49.2487C19.656 49.5424 20.522 50.1681 19.9811 50.9375C18.4445 53.1227 15.6292 54.06 13.2677 52.5602C12.3416 51.9721 11.9361 51.3849 11.4868 50.3785C10.7802 48.8909 10.6503 47.3702 10.3096 45.7924C9.99562 44.4459 9.55108 43.0198 9.09607 41.7152C8.64051 40.4089 8.06224 39.4089 7.4258 38.2038C7.27666 37.9214 6.7012 36.9609 6.64486 36.7271L6.74466 36.6658C7.66367 36.7008 8.8776 37.1902 9.80372 37.3681C11.7021 37.7326 13.5719 38.2208 15.4124 38.8141C16.5284 39.1738 17.8611 39.6354 18.7635 40.4074L18.5868 40.5082C18.0352 40.1985 17.4307 39.8356 16.8325 39.6249C14.5544 38.8228 12.2081 38.4007 9.84337 37.9502C9.48338 37.8816 8.43083 37.6364 8.14649 37.666L8.10249 37.7573C8.15118 38.1073 8.70802 38.9454 8.87868 39.3405C9.31167 40.402 9.87715 41.4705 10.2694 42.5446C10.5547 43.326 10.7222 44.2881 10.9914 45.1017C11.7716 47.4605 11.5665 51.134 14.2795 52.2708C15.2541 52.6881 16.3564 52.6916 17.3335 52.2807C18.2021 51.9197 18.8119 51.3493 19.2679 50.4856C19.4653 50.1118 19.2111 49.6091 19.0559 49.2487Z" fill="#C16149"/>
<path d="M23.063 26.799C22.1068 27.0784 21.2325 27.3731 20.341 27.842C19.9615 28.0415 18.9162 28.8327 18.6016 28.9376C18.2271 28.7109 18.1418 27.5339 18.4233 27.2116C18.6771 27.2035 18.9801 27.523 19.1514 27.4675C19.4972 27.3556 19.8779 27.1069 20.1988 26.9048C23.0824 25.0891 27.0762 24.5097 29.8114 26.915C30.2633 27.3123 30.7107 27.8126 31.1297 28.2494C32.148 29.5166 33.9976 32.3344 34.4804 33.8308C34.3579 33.779 33.1581 31.3388 32.7652 30.8508C32.944 31.4934 34.3858 33.9335 34.2364 34.4395C33.442 32.1209 32.0764 29.4996 30.0375 28.0714C29.4128 27.6338 28.633 27.3154 27.9281 27.0254C26.4978 26.5425 24.5144 26.4038 23.063 26.799Z" fill="#C16149"/>
<path d="M25.4506 47.6837C25.2799 47.0638 24.5396 47.0617 24.5041 45.9932C24.4937 45.699 24.5555 45.4067 24.6842 45.142C25.025 44.4493 25.9534 44.0626 26.6702 44.4093C27.2923 44.7102 27.2301 45.357 27.2165 45.9401C27.9596 46.6952 29.0798 47.3044 30.1152 47.6034C30.331 47.6657 30.8427 47.6109 31.0513 47.7396C30.927 48.3301 28.2286 48.0727 27.711 47.9057C27.0725 47.6997 26.3436 47.4543 25.7356 47.1721L25.6627 48.086L25.5989 47.9529L25.5132 47.9293L25.4506 47.6837Z" fill="#C16149"/>
<path d="M22.3823 22.3514C23.8086 21.8425 26.7005 21.1016 27.4241 22.9508C27.468 23.063 27.4745 23.152 27.4633 23.2699L27.3868 23.3808C27.0043 23.3084 26.5339 23.1237 26.2071 23.0793C24.8283 22.8889 23.5447 22.9921 22.194 23.3419C21.7311 23.4618 20.1077 24.2669 19.707 23.9233C19.5288 23.7705 19.6185 22.86 19.9087 22.5958C20.4431 22.4244 20.5487 23.0305 21.0765 22.7821C21.4904 22.7054 21.9916 22.5146 22.3823 22.3514Z" fill="#C16149"/>
<path d="M25.5183 33.889C26.1223 34.105 26.794 34.035 27.4526 34.2604C28.0601 34.4683 29.5919 35.0542 29.9052 35.6506C29.9137 35.8158 29.9858 35.7991 29.9842 35.9228C29.9713 35.9255 29.9583 35.9281 29.9454 35.9308C28.8028 35.997 27.5731 36.128 26.5912 35.421C25.9386 34.9512 25.6635 34.6322 25.5183 33.889Z" fill="#C16149"/>
<path d="M23.0186 17.7922C23.8879 17.7289 24.2481 18.398 24.4734 19.1094C24.2917 19.9071 24.0538 19.995 23.3577 20.3315C22.6171 20.3862 22.1403 19.7308 21.9547 19.0962C22.109 18.4377 22.3282 17.9719 23.0186 17.7922Z" fill="#C16149"/>
<path d="M30.0876 35.3778C29.5661 34.4065 29.2019 34.047 28.1709 33.6851C27.4551 33.4338 25.3722 33.4411 24.9165 33.1045L24.9193 33.0338C25.3534 32.8356 27.8264 33.0016 28.3518 33.1767C29.2155 33.4646 30.6377 34.7358 30.1863 35.7496C30.0674 35.599 30.1045 35.6058 30.0876 35.3778Z" fill="#C16149"/>
<path d="M5.40643 62.3748C5.10727 61.7921 4.11231 59.7032 4.28309 59.1467C4.42977 59.3704 4.93491 60.7477 5.11572 61.1077C5.29132 61.4573 5.72816 62.2958 5.85468 62.6296C5.6808 62.5047 5.55137 62.1541 5.43374 62.1042C5.4011 62.2005 5.40757 62.2726 5.40643 62.3748Z" fill="#C16149"/>
<path d="M25.4506 47.6836L25.5132 47.9292L25.5989 47.9528L25.6627 48.0859C25.5831 48.7919 25.4279 48.9004 24.9481 49.4212C25.2619 48.5205 25.3529 48.7712 25.4506 47.6836Z" fill="#C16149"/>
<path d="M18.7634 40.4077C19.2587 40.735 19.6382 40.983 20.0306 41.4291C19.5914 41.2146 19.0053 40.7919 18.5867 40.5085L18.7634 40.4077Z" fill="#C16149" fill-opacity="0.984314"/>
<path d="M30.0876 35.3779C30.1045 35.6059 30.0674 35.599 30.1864 35.7496C30.1054 35.8372 30.0829 35.8556 29.9842 35.9228C29.9857 35.799 29.9137 35.8158 29.9052 35.6505C30.055 35.576 30.0126 35.584 30.0876 35.3779Z" fill="#C16149" fill-opacity="0.905882"/>
<path d="M75.2679 28.52C75.2679 30.16 75.6679 31.58 76.4679 32.78C77.3079 33.94 78.3679 34.96 79.6479 35.84C80.9279 36.72 82.2879 37.6 83.7279 38.48C85.2079 39.32 86.6279 40.22 87.9879 41.18C89.3879 42.14 90.5279 43.28 91.4079 44.6C92.3279 45.92 92.7879 47.54 92.7879 49.46C92.7879 51.38 92.3079 53.12 91.3479 54.68C90.3879 56.2 88.9879 57.42 87.1479 58.34C85.3479 59.26 83.1079 59.72 80.4279 59.72C79.4679 59.72 78.5079 59.64 77.5479 59.48C76.6279 59.36 75.6879 59.14 74.7279 58.82C73.8079 58.5 72.8879 58.1 71.9679 57.62C71.7679 57.5 71.6279 57.36 71.5479 57.2C71.5079 57 71.4679 56.76 71.4279 56.48L70.6479 48.32C70.6079 48.12 70.6879 48.02 70.8879 48.02C71.1279 47.98 71.2679 48.04 71.3079 48.2C71.5879 49.4 71.9879 50.62 72.5079 51.86C73.0279 53.1 73.7079 54.24 74.5479 55.28C75.3879 56.32 76.4079 57.16 77.6079 57.8C78.8079 58.44 80.2079 58.76 81.8079 58.76C82.9679 58.76 84.0879 58.54 85.1679 58.1C86.2879 57.66 87.1879 56.94 87.8679 55.94C88.5879 54.94 88.9479 53.58 88.9479 51.86C88.9479 49.9 88.5079 48.28 87.6279 47C86.7879 45.68 85.7079 44.54 84.3879 43.58C83.0679 42.62 81.6679 41.72 80.1879 40.88C78.7879 40 77.4279 39.1 76.1079 38.18C74.8279 37.26 73.7679 36.18 72.9279 34.94C72.1279 33.66 71.7279 32.08 71.7279 30.2C71.7279 28.08 72.2679 26.34 73.3479 24.98C74.4279 23.58 75.8279 22.54 77.5479 21.86C79.2679 21.18 81.0479 20.84 82.8879 20.84C84.0079 20.84 85.1679 20.96 86.3679 21.2C87.5679 21.4 88.7479 21.76 89.9079 22.28C90.2279 22.4 90.4479 22.56 90.5679 22.76C90.7279 22.92 90.8079 23.1 90.8079 23.3L91.2279 30.14C91.2279 30.3 91.1279 30.4 90.9279 30.44C90.7279 30.44 90.5879 30.36 90.5079 30.2C90.4279 29.4 90.2079 28.52 89.8479 27.56C89.4879 26.56 88.9679 25.62 88.2879 24.74C87.6079 23.86 86.7479 23.14 85.7079 22.58C84.6679 22.02 83.4079 21.74 81.9279 21.74C80.3679 21.74 79.0879 22.08 78.0879 22.76C77.1279 23.4 76.4079 24.24 75.9279 25.28C75.4879 26.28 75.2679 27.36 75.2679 28.52ZM130.001 59.72C127.121 59.72 124.501 59.22 122.141 58.22C119.821 57.18 117.821 55.76 116.141 53.96C114.501 52.16 113.221 50.1 112.301 47.78C111.421 45.42 110.981 42.92 110.981 40.28C110.981 37.04 111.601 34.2 112.841 31.76C114.121 29.32 115.801 27.3 117.881 25.7C119.961 24.06 122.241 22.84 124.721 22.04C127.201 21.24 129.661 20.84 132.101 20.84C135.061 20.84 137.701 21.38 140.021 22.46C142.381 23.5 144.381 24.92 146.021 26.72C147.661 28.52 148.901 30.56 149.741 32.84C150.621 35.12 151.061 37.46 151.061 39.86C151.061 42.66 150.501 45.26 149.381 47.66C148.261 50.06 146.721 52.16 144.761 53.96C142.841 55.76 140.601 57.18 138.041 58.22C135.521 59.22 132.841 59.72 130.001 59.72ZM132.101 58.46C134.821 58.46 137.261 57.82 139.421 56.54C141.581 55.22 143.301 53.3 144.581 50.78C145.861 48.26 146.501 45.18 146.501 41.54C146.501 37.78 145.801 34.46 144.401 31.58C143.041 28.66 141.081 26.38 138.521 24.74C136.001 23.06 133.021 22.22 129.581 22.22C125.141 22.22 121.681 23.66 119.201 26.54C116.761 29.38 115.541 33.26 115.541 38.18C115.541 41.02 115.921 43.68 116.681 46.16C117.481 48.6 118.621 50.76 120.101 52.64C121.581 54.48 123.341 55.92 125.381 56.96C127.421 57.96 129.661 58.46 132.101 58.46ZM173.118 52.46L173.718 22.88L175.158 23L174.558 52.46C174.518 54.54 174.858 56.04 175.578 56.96C176.338 57.84 177.698 58.28 179.658 58.28C179.738 58.28 179.778 58.4 179.778 58.64C179.778 58.88 179.738 59 179.658 59C178.778 59 177.858 58.98 176.898 58.94C175.978 58.9 174.958 58.88 173.838 58.88C172.798 58.88 171.818 58.9 170.898 58.94C169.978 58.98 169.118 59 168.318 59C168.238 59 168.198 58.88 168.198 58.64C168.198 58.4 168.238 58.28 168.318 58.28C169.998 58.28 171.198 57.84 171.918 56.96C172.678 56.04 173.078 54.54 173.118 52.46ZM214.698 58.28C214.818 58.28 214.878 58.4 214.878 58.64C214.878 58.88 214.818 59 214.698 59C213.738 59 212.638 58.98 211.398 58.94C210.198 58.9 208.938 58.88 207.618 58.88C206.338 58.88 205.138 58.9 204.018 58.94C202.938 58.98 201.958 59 201.078 59C200.998 59 200.958 58.88 200.958 58.64C200.958 58.4 200.998 58.28 201.078 58.28C203.078 58.28 204.358 58.02 204.918 57.5C205.478 56.98 205.718 55.86 205.638 54.14L204.498 25.16L206.478 22.4L190.878 58.58C190.838 58.74 190.678 58.82 190.398 58.82C190.118 58.82 189.938 58.74 189.858 58.58L174.798 26.48C173.438 23.64 171.418 22.22 168.738 22.22C168.658 22.22 168.618 22.1 168.618 21.86C168.618 21.62 168.658 21.5 168.738 21.5C169.378 21.5 170.058 21.52 170.778 21.56C171.538 21.6 172.158 21.62 172.638 21.62C173.278 21.62 173.858 21.6 174.378 21.56C174.938 21.52 175.358 21.5 175.638 21.5C176.198 21.5 176.638 21.68 176.958 22.04C177.278 22.4 177.758 23.26 178.398 24.62L192.078 53.42L190.218 56.54L204.858 23C205.058 22.52 205.318 22.16 205.638 21.92C205.958 21.64 206.298 21.5 206.658 21.5C206.898 21.5 207.218 21.52 207.618 21.56C208.018 21.6 208.498 21.62 209.058 21.62C210.138 21.62 211.018 21.6 211.698 21.56C212.378 21.52 213.098 21.5 213.858 21.5C213.938 21.5 213.978 21.62 213.978 21.86C213.978 22.1 213.938 22.22 213.858 22.22C211.938 22.22 210.518 22.5 209.598 23.06C208.678 23.62 208.258 24.72 208.338 26.36L209.538 54.14C209.578 55.3 209.718 56.18 209.958 56.78C210.198 57.38 210.678 57.78 211.398 57.98C212.158 58.18 213.258 58.28 214.698 58.28ZM239.716 42.5L240.316 41.3H256.216L256.636 42.5H239.716ZM270.016 58.28C270.176 58.28 270.256 58.4 270.256 58.64C270.256 58.88 270.176 59 270.016 59C268.856 59 267.676 58.96 266.476 58.88C265.276 58.8 264.116 58.76 262.996 58.76C261.756 58.76 260.676 58.8 259.756 58.88C258.836 58.96 257.816 59 256.696 59C256.536 59 256.456 58.88 256.456 58.64C256.456 58.4 256.536 58.28 256.696 58.28C258.816 58.28 260.136 57.98 260.656 57.38C261.176 56.74 261.036 55.56 260.236 53.84L246.916 25.7L248.416 23.84L236.776 51.38C235.776 53.82 235.716 55.58 236.596 56.66C237.476 57.74 239.216 58.28 241.816 58.28C242.016 58.28 242.116 58.4 242.116 58.64C242.116 58.88 242.016 59 241.816 59C240.616 59 239.516 58.96 238.516 58.88C237.516 58.8 236.256 58.76 234.736 58.76C233.296 58.76 232.136 58.8 231.256 58.88C230.416 58.96 229.376 59 228.136 59C227.976 59 227.896 58.88 227.896 58.64C227.896 58.4 227.976 58.28 228.136 58.28C229.216 58.28 230.156 58.08 230.956 57.68C231.756 57.24 232.496 56.5 233.176 55.46C233.896 54.38 234.676 52.84 235.516 50.84L248.176 20.96C248.256 20.84 248.396 20.78 248.596 20.78C248.796 20.78 248.916 20.84 248.956 20.96L263.116 50.78C264.036 52.74 264.856 54.28 265.576 55.4C266.296 56.48 266.996 57.24 267.676 57.68C268.396 58.08 269.176 58.28 270.016 58.28Z" fill="white"/>
</svg>
